<svg width="24" height="24" viewBox="0 0 24 24" fill="none" xmlns="http://www.w3.org/2000/svg">
<path fill-rule="evenodd" clip-rule="evenodd" d="M22 11.2807C22 11.6122 21.8683 11.9302 21.6339 12.1646C21.3994 12.3991 21.0815 12.5308 20.7499 12.5308H6.2658L11.6328 17.8977C11.8536 18.1347 11.9738 18.4481 11.9681 18.772C11.9624 19.0958 11.8312 19.4048 11.6021 19.6339C11.3731 19.8629 11.0641 19.9941 10.7403 19.9998C10.4164 20.0055 10.103 19.8853 9.866 19.6645L2.36559 12.1641C2.13149 11.9297 2 11.612 2 11.2807C2 10.9494 2.13149 10.6317 2.36559 10.3973L9.866 2.89691C10.103 2.67609 10.4164 2.55588 10.7403 2.56159C11.0641 2.56731 11.3731 2.6985 11.6021 2.92754C11.8312 3.15657 11.9624 3.46556 11.9681 3.78942C11.9738 4.11327 11.8536 4.4267 11.6328 4.66367L6.2658 10.0306L20.7499 10.0306C21.0815 10.0306 21.3994 10.1623 21.6339 10.3968C21.8683 10.6312 22 10.9492 22 11.2807Z" fill="#2C3646" fill-opacity="0.64"/>
</svg>
